<svg width="30" height="31" viewBox="0 0 30 31" fill="none" xmlns="http://www.w3.org/2000/svg">
<g filter="url(#filter0_d_14_195)">
<path d="M15 22C19.9706 22 24 17.9706 24 13C24 8.02944 19.9706 4 15 4C10.0294 4 6 8.02944 6 13C6 17.9706 10.0294 22 15 22Z" stroke="white" stroke-width="1.5" stroke-linecap="round"/>
<path d="M8 19L6 21M22 19L24 21" stroke="white" stroke-width="1.5" stroke-linecap="round" stroke-linejoin="round"/>
<path d="M22 3.5697L22.5955 3.27195C23.4408 2.84932 23.7583 2.89769 24.4303 3.5697C25.1023 4.2417 25.1507 4.55924 24.728 5.4045L24.4303 6M8 3.5697L7.4045 3.27195C6.55924 2.84932 6.2417 2.89769 5.5697 3.5697C4.89769 4.2417 4.84932 4.55924 5.27195 5.4045L5.5697 6" stroke="white" stroke-width="1.5" stroke-linecap="round"/>
<path d="M15 9.5V13.5L17 15.5" stroke="white" stroke-width="1.5" stroke-linecap="round" stroke-linejoin="round"/>
<path d="M15 3.5V2" stroke="white" stroke-width="1.5" stroke-linecap="round" stroke-linejoin="round"/>
<path d="M13 2H17" stroke="white" stroke-width="1.5" stroke-linecap="round" stroke-linejoin="round"/>
</g>
<defs>
<filter id="filter0_d_14_195" x="-1" y="0" width="32" height="32" filterUnits="userSpaceOnUse" color-interpolation-filters="sRGB">
<feFlood flood-opacity="0" result="BackgroundImageFix"/>
<feColorMatrix in="SourceAlpha" type="matrix" values="0 0 0 0 0 0 0 0 0 0 0 0 0 0 0 0 0 0 127 0" result="hardAlpha"/>
<feOffset dy="4"/>
<feGaussianBlur stdDeviation="2"/>
<feComposite in2="hardAlpha" operator="out"/>
<feColorMatrix type="matrix" values="0 0 0 0 0 0 0 0 0 0 0 0 0 0 0 0 0 0 0.25 0"/>
<feBlend mode="normal" in2="BackgroundImageFix" result="effect1_dropShadow_14_195"/>
<feBlend mode="normal" in="SourceGraphic" in2="effect1_dropShadow_14_195" result="shape"/>
</filter>
</defs>
</svg>
